<svg xmlns="http://www.w3.org/2000/svg" fill="none" stroke="currentColor" stroke-linecap="round" stroke-linejoin="round" viewBox="0 0 24 24">
    <path d="M4.3 21.51v-4.13h-.49c-1.83 0-3.3-1.48-3.3-3.3V3.87A3.288 3.288 0 0 1 3.8.57h13.01c1.83 0 3.3 1.48 3.3 3.3v10.2c0 1.83-1.48 3.3-3.3 3.3H8.53L4.29 21.5l.01.01z"/>
    <path d="M20.12 9.33h1.23c1.19 0 2.15.96 2.15 2.15v7.26c0 1.19-.96 2.15-2.15 2.15h-.57v2.54l-4.02-2.54h-4.58c-1.19 0-2.15-.96-2.15-2.15v-1.36"/>
    <path d="M8.41 5.29c.99-.86 2.58-.86 3.57 0 .99.86.99 2.26 0 3.12-.17.15-.36.27-.56.37-.63.3-1.22.84-1.22 1.54v.63m0 2.52h0s0 0 0 0h0z"/>
</svg>
