<svg xmlns="http://www.w3.org/2000/svg" viewBox="0 0 24 24" fill="none" stroke="currentColor" stroke-linecap="round">
    <rect width="23" height="18.4" x=".5" y="2.8" rx="2.13" ry="2.13"/>
    <path d="M23.5 7.58H.5"/>
    <path d="M3.51 4.85a.28.28 0 1 0 0 .56c.15 0 .28-.12.28-.28 0-.15-.12-.27-.28-.27M6.01 4.85a.28.28 0 1 0 0 .56c.15 0 .28-.12.28-.28 0-.15-.12-.27-.28-.27M8.51 4.85a.28.28 0 1 0 0 .56c.15 0 .28-.12.28-.28 0-.15-.12-.27-.28-.27"/>
    <path stroke-width=".6" d="M3.51 10.29h16.68M3.51 12.29h14.1M3.51 14.29h5.66"/>
</svg>
